<svg width="24" height="25" viewBox="0 0 24 25" fill="none" xmlns="http://www.w3.org/2000/svg">
<path id="Vector" d="M22.6819 0H1.32417C0.972975 0 0.636169 0.142205 0.387839 0.39533C0.13951 0.648456 0 0.991768 0 1.34974V23.1221C0 23.4801 0.13951 23.8234 0.387839 24.0765C0.636169 24.3297 0.972975 24.4719 1.32417 24.4719H12.8179V14.9967H9.69289V11.3025H12.8179V8.57813C12.8179 5.41766 14.7125 3.69622 17.479 3.69622C18.4126 3.69282 19.3456 3.74135 20.274 3.84157V7.14533H18.3611C16.8556 7.14533 16.5643 7.87419 16.5643 8.9436V11.3025H20.1518L19.6853 14.9967H16.5643V24.4739H22.6758C23.0269 24.4734 23.3634 24.331 23.6116 24.078C23.8598 23.825 23.9995 23.482 24 23.1242V1.35182C24.0005 0.994562 23.8621 0.651658 23.615 0.398262C23.368 0.144865 23.0324 0.00164845 22.6819 0Z" fill="#0E1020"/>
</svg>
