<svg width="24" height="25" viewBox="0 0 24 25" fill="none" xmlns="http://www.w3.org/2000/svg">
<g id="teenyicons:instagram-solid" clip-path="url(#clip0_959_734)">
<path id="Vector" d="M12 8.22949C10.9391 8.22949 9.92172 8.65899 9.17157 9.42351C8.42143 10.188 8 11.2249 8 12.3061C8 13.3873 8.42143 14.4242 9.17157 15.1887C9.92172 15.9533 10.9391 16.3828 12 16.3828C13.0609 16.3828 14.0783 15.9533 14.8284 15.1887C15.5786 14.4242 16 13.3873 16 12.3061C16 11.2249 15.5786 10.188 14.8284 9.42351C14.0783 8.65899 13.0609 8.22949 12 8.22949Z" fill="black"/>
<path id="Vector_2" fill-rule="evenodd" clip-rule="evenodd" d="M7.2 0.0761719C5.29044 0.0761719 3.45909 0.849275 2.10883 2.22541C0.758569 3.60154 0 5.46797 0 7.41412L0 17.198C0 19.1442 0.758569 21.0106 2.10883 22.3867C3.45909 23.7629 5.29044 24.536 7.2 24.536H16.8C18.7096 24.536 20.5409 23.7629 21.8912 22.3867C23.2414 21.0106 24 19.1442 24 17.198V7.41412C24 5.46797 23.2414 3.60154 21.8912 2.22541C20.5409 0.849275 18.7096 0.0761719 16.8 0.0761719L7.2 0.0761719ZM6.4 12.3061C6.4 10.7924 6.99 9.34074 8.0402 8.27042C9.09041 7.20009 10.5148 6.59879 12 6.59879C13.4852 6.59879 14.9096 7.20009 15.9598 8.27042C17.01 9.34074 17.6 10.7924 17.6 12.3061C17.6 13.8197 17.01 15.2714 15.9598 16.3417C14.9096 17.4121 13.4852 18.0134 12 18.0134C10.5148 18.0134 9.09041 17.4121 8.0402 16.3417C6.99 15.2714 6.4 13.8197 6.4 12.3061ZM17.6 6.59879H19.2V4.96813H17.6V6.59879Z" fill="#0E1020"/>
</g>
<defs>
<clipPath id="clip0_959_734">
<rect width="24" height="24.4598" fill="white" transform="translate(0 0.0761719)"/>
</clipPath>
</defs>
</svg>
