<svg width="24" height="25" viewBox="0 0 24 25" fill="none" xmlns="http://www.w3.org/2000/svg">
<path id="Vector" d="M12.0173 0.0761719C5.38011 0.0761719 0 5.54933 0 12.3013C0 17.48 3.16822 21.9015 7.63937 23.682C7.53336 22.7137 7.43938 21.2323 7.67847 20.1768C7.898 19.2207 9.08815 14.1017 9.08815 14.1017C9.08815 14.1017 8.72802 13.3644 8.72802 12.2852C8.72802 10.5881 9.69939 9.31767 10.9016 9.31767C11.9278 9.31767 12.4248 10.0986 12.4248 11.0385C12.4248 12.0864 11.7707 13.6558 11.4301 15.1098C11.1444 16.3251 12.0293 17.3163 13.2082 17.3163C15.3426 17.3163 16.9869 15.0256 16.9869 11.7192C16.9869 8.80293 14.9194 6.75547 11.9669 6.75547C8.54834 6.75547 6.5432 9.36891 6.5432 12.0573C6.5432 13.109 6.93866 14.2401 7.43638 14.8497C7.53412 14.9729 7.54614 15.0807 7.51833 15.2046C7.42811 15.587 7.22436 16.4276 7.18526 16.5951C7.13038 16.8222 7.01309 16.8696 6.78228 16.7626C5.28614 16.0574 4.34259 13.8264 4.34259 12.0259C4.34259 8.17424 7.09955 4.62847 12.2842 4.62847C16.4508 4.62847 19.6928 7.65568 19.6928 11.6871C19.6928 15.906 17.0809 19.2995 13.4473 19.2995C12.2293 19.2995 11.0858 18.6578 10.6828 17.893L9.93096 20.7971C9.66105 21.861 8.92425 23.1948 8.42729 24.004C9.55504 24.3543 10.7414 24.5501 11.9865 24.5501C18.6124 24.5501 24 19.0808 24 12.325C24 5.57304 18.6116 0.103706 11.9865 0.103706L12.0173 0.0761719Z" fill="#0E1020"/>
</svg>
